<?xml version="1.0" standalone="no"?><!DOCTYPE svg PUBLIC "-//W3C//DTD SVG 1.1//EN" "http://www.w3.org/Graphics/SVG/1.1/DTD/svg11.dtd"><svg t="1607244716336" class="icon" viewBox="0 0 1024 1024" version="1.1" xmlns="http://www.w3.org/2000/svg" p-id="2808" xmlns:xlink="http://www.w3.org/1999/xlink" width="200" height="200"><defs><style type="text/css"></style></defs><path d="M640 640m-256 0a256 256 0 1 0 512 0 256 256 0 1 0-512 0Z" fill="#E6F1FD" p-id="2809"></path><path d="M166.4 745.28a1274.048 1274.048 0 0 1-21.248-36.928 416 416 0 1 1 153.152 160.64c-6.4-3.84-12.992-7.68-19.52-11.456l-101.76 27.776a31.168 31.168 0 0 1-38.336-38.336l27.712-101.696z m64.64 39.232l54.72-15.104a27.392 27.392 0 0 1 21.184 2.816l27.968 16.576c48.64 29.504 115.904 56.128 172.608 56 173.184 0 337.28-160.64 337.28-335.936 0-175.232-164.096-329.664-337.28-329.664-173.184 0-328.32 154.432-328.32 329.664 0 53.056 17.472 111.872 41.664 157.568 3.2 6.016 11.2 19.968 23.68 41.28a28.16 28.16 0 0 1 2.88 21.632l-16.384 55.168z m88.32-147.904c5.12-12.8 19.008-22.272 32-26.56a42.112 42.112 0 0 1 38.08 6.144c34.496 25.6 77.696 44.672 122.56 44.608 45.504 0 88.768-19.2 123.008-44.608 16.32-12.096 44.992-11.136 61.632 7.872s3.84 54.656-12.48 66.816c-48.256 35.84-109.376 60.48-172.16 60.416-62.848 0-123.392-24.576-171.712-60.48-10.752-7.744-30.08-31.808-20.928-54.208z" fill="#53A4FC" p-id="2810"></path></svg>