<svg xmlns="http://www.w3.org/2000/svg" viewBox="0 0 180 180" width="180" height="180"><g opacity="0.401" fill="none" fill-rule="nonzero"><path fill="#f1f1f1" d="M 4.475 36.796 a 4.475 4.475 0 1 0 0 8.95 a 4.475 4.475 0 0 0 0 -8.95 Z" /><path fill="#d5d5d5" d="M 152.652 1.989 a 2.486 2.486 0 1 0 0 4.972 a 2.486 2.486 0 0 0 0 -4.972 Z" /><path fill="#e5e5e5" d="M 90.497 4.972 c -47.234 0 -85.525 38.291 -85.525 85.525 c 0 47.234 38.291 85.525 85.525 85.525 c 47.234 0 85.525 -38.29 85.525 -85.525 c 0 -47.234 -38.29 -85.525 -85.525 -85.525 Z" /><path fill="#e9e9e9" d="M 166.575 0 a 9.448 9.448 0 1 0 0 18.895 a 9.448 9.448 0 0 0 0 -18.895 Z" /><path fill="#f1f1f1" d="M 175.525 25.856 a 4.475 4.475 0 1 0 0 8.95 a 4.475 4.475 0 0 0 0 -8.95 Z" /><path fill="#d7d7d7" d="M 161.464 144.932 a 4.61 4.61 0 0 0 -4.613 4.606 a 4.61 4.61 0 0 0 4.613 4.606 a 4.61 4.61 0 0 0 4.613 -4.606 a 4.61 4.61 0 0 0 -4.613 -4.606 Z M 9.227 110.387 C 4.13 110.387 0 114.51 0 119.599 c 0 5.087 4.13 9.212 9.227 9.212 c 5.095 0 9.226 -4.125 9.226 -9.212 c 0 -5.088 -4.13 -9.212 -9.226 -9.212 Z" /><path fill="#f1f1f1" d="M 32.32 171.05 a 4.475 4.475 0 1 0 0 8.95 a 4.475 4.475 0 0 0 0 -8.95 Z" /><path fill="#fff" d="M 16.906 92.486 a 5.967 5.967 0 1 0 0 11.934 a 5.967 5.967 0 0 0 0 -11.934 Z" /><path fill="#c7c7c7" d="M 23.37 126.298 a 2.486 2.486 0 1 0 0 4.973 a 2.486 2.486 0 0 0 0 -4.973 Z" /><path fill="#fff" d="M 159.613 50.718 a 2.486 2.486 0 1 0 0 4.973 a 2.486 2.486 0 0 0 0 -4.973 Z" /><path fill="#f9f9f9" d="M 124.699 39.109 c 8.929 0 16.192 7.263 16.192 16.192 V 124.7 c 0 8.929 -7.263 16.192 -16.192 16.192 H 55.3 c -8.929 0 -16.192 -7.263 -16.192 -16.192 V 55.3 c 0 -8.929 7.263 -16.192 16.192 -16.192 H 124.7" /><path fill="#7f7f7f" d="M 124.699 40.034 c 8.417 0 15.267 6.85 15.267 15.267 V 124.7 c 0 8.417 -6.85 15.267 -15.267 15.267 H 55.3 c -8.417 0 -15.267 -6.85 -15.267 -15.267 V 55.3 c 0 -8.417 6.85 -15.267 15.267 -15.267 H 124.7 m 0 -3.238 H 55.3 c -10.22 0 -18.505 8.286 -18.505 18.505 V 124.7 c 0 10.22 8.286 18.505 18.505 18.505 H 124.7 c 10.22 0 18.505 -8.286 18.505 -18.505 V 55.3 c 0 -10.22 -8.286 -18.505 -18.505 -18.505 Z" /><path fill="#dadada" d="M 120.072 133.951 H 59.928 c -7.655 0 -13.88 -6.224 -13.88 -13.879 V 59.928 c 0 -7.655 6.225 -13.88 13.88 -13.88 h 60.144 c 7.655 0 13.88 6.225 13.88 13.88 v 60.144 c 0 7.655 -6.225 13.88 -13.88 13.88 Z" /><path fill="#6a6a6a" d="M 120.072 133.951 H 59.928 c -7.655 0 -13.88 -6.224 -13.88 -13.879 V 59.928 c 0 -7.655 6.225 -13.88 13.88 -13.88 h 56.963 a 0.868 0.868 0 0 1 0 1.735 H 59.928 c -6.697 0 -12.145 5.448 -12.145 12.145 v 60.144 c 0 6.697 5.448 12.145 12.145 12.145 h 60.144 c 6.697 0 12.145 -5.448 12.145 -12.145 V 86.241 a 0.868 0.868 0 0 1 1.734 0 v 33.831 c 0 7.655 -6.224 13.88 -13.879 13.88 Z m 13.012 -62.457 a 0.868 0.868 0 0 1 -0.867 -0.867 V 67.67 a 0.868 0.868 0 0 1 1.734 0 v 2.957 a 0.868 0.868 0 0 1 -0.867 0.867 Z" /><path fill="#6a6a6a" d="M 133.084 83.06 a 0.868 0.868 0 0 1 -0.867 -0.867 v -7.518 a 0.868 0.868 0 0 1 1.734 0 v 7.518 a 0.868 0.868 0 0 1 -0.867 0.867 Z" /><g><path fill="#fff" d="M 79.042 91.101 a 1.55 1.55 0 0 1 -0.457 1.104 a 1.55 1.55 0 0 1 -1.104 0.457 h -1.868 a 1.55 1.55 0 0 1 -1.104 -0.457 a 1.551 1.551 0 0 1 -0.457 -1.104 v -4.015 a 1.55 1.55 0 0 1 0.457 -1.103 a 1.551 1.551 0 0 1 1.104 -0.458 h 1.868 a 1.55 1.55 0 0 1 1.104 0.457 c 0.295 0.296 0.457 0.687 0.457 1.104 v 4.015 Z m 13.453 0 c 0 0.418 -0.163 0.81 -0.458 1.105 a 1.55 1.55 0 0 1 -1.103 0.456 h -1.868 a 1.55 1.55 0 0 1 -1.105 -0.458 a 1.55 1.55 0 0 1 -0.456 -1.103 v -4.015 a 1.55 1.55 0 0 1 0.457 -1.104 a 1.55 1.55 0 0 1 1.104 -0.457 h 1.868 c 0.417 0 0.809 0.163 1.104 0.457 c 0.294 0.292 0.458 0.69 0.457 1.104 v 4.015 Z m 12.988 -0.009 c 0 0.418 -0.163 0.81 -0.458 1.105 a 1.55 1.55 0 0 1 -1.103 0.456 h -1.868 a 1.55 1.55 0 0 1 -1.105 -0.458 a 1.55 1.55 0 0 1 -0.456 -1.103 v -4.015 a 1.55 1.55 0 0 1 0.457 -1.104 a 1.55 1.55 0 0 1 1.104 -0.457 h 1.868 c 0.417 0 0.81 0.162 1.104 0.457 c 0.294 0.292 0.458 0.69 0.457 1.104 v 4.015 Z" /><path fill="#f7f7f7" d="M 115.4 70.486 a 4.824 4.824 0 0 0 -3.433 -1.422 H 68.033 a 4.823 4.823 0 0 0 -3.433 1.422 a 4.823 4.823 0 0 0 -1.422 3.434 v 28.16 c 0 1.297 0.505 2.516 1.422 3.434 a 4.823 4.823 0 0 0 3.433 1.422 h 10.182 v 6.033 a 1.946 1.946 0 0 0 2.683 1.805 l 12.259 -4.99 c 0.128 0.315 0.318 0.603 0.56 0.844 c 0.48 0.48 1.117 0.744 1.796 0.744 h 2.517 v 1.122 a 1.56 1.56 0 0 0 2.152 1.447 l 6.312 -2.57 h 3.797 c 0.678 0 1.316 -0.264 1.796 -0.744 s 0.744 -1.117 0.744 -1.796 v -1.973 a 4.818 4.818 0 0 0 2.57 -1.344 a 4.823 4.823 0 0 0 1.421 -3.433 V 73.92 a 4.824 4.824 0 0 0 -1.422 -3.434 Z" /><path fill="#444" d="M 115.4 70.486 a 4.824 4.824 0 0 0 -3.433 -1.422 H 68.033 a 4.823 4.823 0 0 0 -3.433 1.422 a 4.823 4.823 0 0 0 -1.422 3.434 v 28.16 c 0 1.297 0.505 2.516 1.422 3.434 a 4.823 4.823 0 0 0 3.433 1.422 h 10.182 v 6.033 a 1.946 1.946 0 0 0 2.683 1.805 l 12.259 -4.99 c 0.128 0.315 0.318 0.603 0.56 0.844 c 0.48 0.48 1.117 0.744 1.796 0.744 h 2.517 v 1.122 a 1.56 1.56 0 0 0 2.152 1.447 l 6.312 -2.57 h 3.797 c 0.678 0 1.316 -0.264 1.796 -0.744 s 0.744 -1.117 0.744 -1.796 v -1.973 a 4.818 4.818 0 0 0 2.57 -1.344 a 4.823 4.823 0 0 0 1.421 -3.433 V 73.92 a 4.824 4.824 0 0 0 -1.422 -3.434 Z m -1.312 31.594 a 2.119 2.119 0 0 1 -1.257 1.937 V 99.36 c 0 -0.679 -0.264 -1.317 -0.744 -1.796 a 2.524 2.524 0 0 0 -1.796 -0.745 H 95.513 c -0.679 0 -1.317 0.265 -1.796 0.744 a 2.524 2.524 0 0 0 -0.745 1.797 v 7.547 L 80.95 111.8 v -5.651 c 0 -0.52 -0.203 -1.01 -0.57 -1.378 a 1.936 1.936 0 0 0 -1.379 -0.57 H 68.033 c -0.567 0 -1.1 -0.221 -1.5 -0.622 c -0.4 -0.4 -0.62 -0.933 -0.62 -1.5 V 73.92 c 0 -0.567 0.22 -1.1 0.62 -1.5 c 0.4 -0.4 0.933 -0.621 1.5 -0.621 h 43.934 c 0.567 0 1.1 0.22 1.5 0.62 c 0.4 0.401 0.62 0.934 0.62 1.5 v 28.161 Z" /><path fill="#444" d="M 77.481 85.525 h -1.868 a 1.55 1.55 0 0 0 -1.104 0.458 c -0.294 0.292 -0.458 0.69 -0.457 1.103 v 4.015 c 0 0.417 0.162 0.809 0.457 1.104 c 0.292 0.294 0.69 0.458 1.104 0.457 h 1.868 a 1.55 1.55 0 0 0 1.104 -0.457 a 1.55 1.55 0 0 0 0.457 -1.104 v -4.015 c 0 -0.417 -0.162 -0.808 -0.457 -1.104 a 1.55 1.55 0 0 0 -1.104 -0.457 Z m 13.453 0 h -1.868 a 1.55 1.55 0 0 0 -1.104 0.457 a 1.55 1.55 0 0 0 -0.457 1.104 v 4.015 c 0 0.418 0.163 0.81 0.456 1.103 c 0.292 0.295 0.69 0.46 1.105 0.458 h 1.868 c 0.418 0 0.81 -0.162 1.103 -0.456 c 0.294 -0.292 0.46 -0.69 0.458 -1.105 v -4.015 a 1.55 1.55 0 0 0 -0.457 -1.104 a 1.55 1.55 0 0 0 -1.104 -0.457 Z m 12.988 -0.01 h -1.868 a 1.55 1.55 0 0 0 -1.104 0.458 a 1.55 1.55 0 0 0 -0.457 1.104 v 4.015 c 0 0.418 0.163 0.81 0.456 1.103 c 0.293 0.294 0.69 0.46 1.105 0.458 h 1.868 c 0.418 0 0.81 -0.163 1.103 -0.456 c 0.294 -0.292 0.46 -0.69 0.458 -1.105 v -4.015 a 1.55 1.55 0 0 0 -0.457 -1.104 a 1.55 1.55 0 0 0 -1.104 -0.457 Z" /><path fill="#fff" d="M 110.097 99.553 h -14.39 v 9.084 h 3.495 c 0.415 -0.001 0.813 0.164 1.105 0.458 c 0.294 0.292 0.459 0.69 0.458 1.105 v 0.552 l 4.91 -2 c 0.187 -0.076 0.387 -0.115 0.59 -0.115 h 3.832 v -9.084 Z m -13.648 2.359 c 0 -0.442 0.172 -0.857 0.484 -1.169 c 0.309 -0.31 0.73 -0.485 1.168 -0.484 h 1.988 a 0.684 0.684 0 0 1 0 1.367 H 98.1 a 0.284 0.284 0 0 0 -0.285 0.286 v 0.968 a 0.684 0.684 0 0 1 -1.367 0 v -0.968 Z m 0 2.859 v -0.274 a 0.684 0.684 0 0 1 1.367 0 v 0.274 a 0.684 0.684 0 0 1 -1.367 0 Z" /><path fill="#959595" d="M 97.14 103.563 a 0.688 0.688 0 0 0 0.692 -0.683 v -0.968 a 0.29 0.29 0 0 1 0.289 -0.285 h 2.01 a 0.688 0.688 0 0 0 0.693 -0.684 a 0.688 0.688 0 0 0 -0.692 -0.684 H 98.12 c -0.447 0 -0.867 0.172 -1.183 0.484 c -0.314 0.31 -0.49 0.73 -0.49 1.169 v 0.968 c 0 0.377 0.31 0.683 0.692 0.683 Z m 0.692 1.208 v -0.274 a 0.688 0.688 0 0 0 -0.692 -0.683 a 0.688 0.688 0 0 0 -0.691 0.683 v 0.274 c 0 0.377 0.31 0.683 0.691 0.683 a 0.688 0.688 0 0 0 0.692 -0.683 Z" /></g></g></svg>