<svg width="432" height="298" viewBox="0 0 432 298" xmlns="http://www.w3.org/2000/svg" xmlns:xlink="http://www.w3.org/1999/xlink"><defs><path id="b" d="M0 0h432v298H0z"/><linearGradient x1="50%" y1="-65.512%" x2="50%" y2="257.264%" id="d"><stop stop-color="#F1F7FF" offset="0%"/><stop stop-color="#C5CAD5" offset="100%"/></linearGradient><linearGradient x1="38.603%" y1="-10.114%" x2="38.603%" y2="116.63%" id="e"><stop stop-color="#FFF" stop-opacity="0" offset="0%"/><stop stop-color="#C5CAD5" offset="100%"/></linearGradient><linearGradient x1="12.93%" y1="-150.26%" x2="80.485%" y2="198.339%" id="f"><stop stop-color="#FFF" offset="0%"/><stop stop-color="#FFB895" offset="100%"/></linearGradient><linearGradient x1="-10.799%" y1="15.925%" y2="75.241%" id="g"><stop stop-color="#FFF" offset="0%"/><stop stop-color="#FFB895" offset="100%"/></linearGradient><path d="M84.743 45.967v-6.894h4.759v-3.869h-4.76V14.212h-4.405l-15.51 20.28v4.581H80.16v6.894h4.583zM80.16 35.204H68.748l11.28-14.854h.132v14.854zm24.666 11.385c3.701 0 6.566-1.6 8.593-4.714 1.85-2.935 2.776-6.893 2.776-11.786 0-4.936-.926-8.85-2.776-11.785-2.027-3.158-4.892-4.715-8.593-4.715-3.701 0-6.565 1.557-8.592 4.715-1.851 2.89-2.776 6.804-2.776 11.785 0 4.937.925 8.85 2.776 11.786 2.027 3.113 4.89 4.714 8.592 4.714zm0-4.091c-2.6 0-4.406-1.468-5.464-4.314-.793-2.002-1.145-4.714-1.145-8.095 0-3.424.352-6.137 1.145-8.094 1.058-2.89 2.864-4.314 5.464-4.314 2.556 0 4.406 1.423 5.464 4.314.75 1.957 1.146 4.67 1.146 8.094 0 3.38-.397 6.093-1.146 8.095-1.058 2.846-2.908 4.314-5.464 4.314zm35.241 3.469v-6.894h4.76v-3.869h-4.76V14.212h-4.406l-15.51 20.28v4.581h15.334v6.894h4.582zm-4.582-10.763h-11.413l11.28-14.854h.133v14.854z" id="h"/><linearGradient x1="59.633%" y1="0%" x2="59.633%" y2="462.402%" id="j"><stop stop-color="#F1F7FF" offset="0%"/><stop stop-color="#C5CAD5" offset="100%"/></linearGradient><linearGradient x1="55.172%" y1="54.131%" x2="55.172%" y2="-57.516%" id="k"><stop stop-color="#FFF" stop-opacity="0" offset="0%"/><stop stop-color="#C5CAD5" offset="100%"/></linearGradient><linearGradient x1="206.784%" y1="122.467%" x2="-611.234%" y2="122.467%" id="l"><stop stop-color="#F1F7FF" offset="0%"/><stop stop-color="#C5CAD5" offset="100%"/></linearGradient><linearGradient x1="-250.195%" y1="280.887%" x2="1456.563%" y2="986.709%" id="m"><stop stop-color="#F1F7FF" offset="0%"/><stop stop-color="#C5CAD5" offset="100%"/></linearGradient></defs><g fill="none" fill-rule="evenodd"><mask id="c" fill="#fff"><use xlink:href="#b"/></mask><g mask="url(#c)"><path d="M26.264 209.17c43.997 29.401 76.723 44.102 98.178 44.102s59.22-14.7 113.294-44.101l-19.224-71.156H45.488l-19.224 71.156z" fill="url(#d)" opacity=".517" transform="translate(83 -9)"/><path fill="url(#e)" opacity=".4" d="M8 0h248l-48.062 253.767H56.062z" transform="translate(83 -9)"/><path fill="url(#f)" opacity=".4" transform="scale(-1 1) rotate(-37 19.714 799.076)" d="M159.22 24.265h59.51l-6.655 9.02 6.654 8.291-6.654 8.653 6.654 8.48-6.654 7.926 6.654 9.015-6.654 8.199 6.654 8.5-6.654 8.129H159.22z"/><path fill="url(#f)" opacity=".4" transform="rotate(-44 112.53 -1.694)" d="M19.099 68.534h59.51l-6.655 9.02 6.654 8.291-6.654 8.653 6.654 8.48-6.654 7.926 6.654 9.015-6.654 8.199 6.654 8.5-6.654 8.129H19.1z"/><path fill="url(#f)" transform="rotate(-44 130.103 -4.979)" d="M32.515 64.41h59.51l-6.655 9.02 6.655 8.291-6.655 8.653 6.655 8.48-6.655 7.926 6.655 9.015-6.655 8.199 6.655 8.5-6.655 8.13H32.515z"/><path fill="url(#f)" transform="scale(-1 1) rotate(-37 16.114 767.476)" d="M147.452 31.087h59.51l-6.654 9.02 6.654 8.291-6.654 8.653 6.654 8.48-6.654 7.926 6.654 9.015-6.654 8.199 6.654 8.5-6.654 8.129h-52.856z"/><g transform="rotate(-7 391.293 -846.073)"><use fill="url(#g)" xlink:href="#h"/><use fill-opacity=".15" fill="url(#i)" style="mix-blend-mode:overlay" xlink:href="#h"/></g><path d="M84.743 45.967v-6.894h4.759v-3.869h-4.76V14.212h-4.405l-15.51 20.28v4.581H80.16v6.894h4.583zM80.16 35.204H68.748l11.28-14.854h.132v14.854zm24.666 11.385c3.701 0 6.566-1.6 8.593-4.714 1.85-2.935 2.776-6.893 2.776-11.786 0-4.936-.926-8.85-2.776-11.785-2.027-3.158-4.892-4.715-8.593-4.715-3.701 0-6.565 1.557-8.592 4.715-1.851 2.89-2.776 6.804-2.776 11.785 0 4.937.925 8.85 2.776 11.786 2.027 3.113 4.89 4.714 8.592 4.714zm0-4.091c-2.6 0-4.406-1.468-5.464-4.314-.793-2.002-1.145-4.714-1.145-8.095 0-3.424.352-6.137 1.145-8.094 1.058-2.89 2.864-4.314 5.464-4.314 2.556 0 4.406 1.423 5.464 4.314.75 1.957 1.146 4.67 1.146 8.094 0 3.38-.397 6.093-1.146 8.095-1.058 2.846-2.908 4.314-5.464 4.314zm35.241 3.469v-6.894h4.76v-3.869h-4.76V14.212h-4.406l-15.51 20.28v4.581h15.334v6.894h4.582zm-4.582-10.763h-11.413l11.28-14.854h.133v14.854z" fill="url(#g)" transform="rotate(-7 391.293 -846.073)"/><path d="M26.264 209.17h211.472v59.597H26.264v-59.596zm53.829 0l9.612 24.032h84.59l9.612-24.031H80.093z" fill="url(#j)" transform="translate(83 -9)"/></g><ellipse fill="url(#k)" opacity=".6" mask="url(#c)" cx="215.5" cy="289.4" rx="250.5" ry="95"/><circle stroke="url(#l)" stroke-width="8" mask="url(#c)" cx="60.226" cy="112.796" r="7"/><path fill="url(#m)" mask="url(#c)" transform="rotate(-154 307.305 23.392)" d="M307.305 11.392l12 24h-24z"/></g></svg>