<svg width="432" height="298" viewBox="0 0 432 298" xmlns="http://www.w3.org/2000/svg" xmlns:xlink="http://www.w3.org/1999/xlink"><defs><path id="b" d="M0 0h432v298H0z"/><linearGradient x1="-103.963%" y1="-128.378%" x2="0%" y2="421.482%" id="c"><stop stop-color="#F1F7FF" offset="0%"/><stop stop-color="#C5CAD5" offset="100%"/></linearGradient><linearGradient x1="0%" y1="-158.887%" x2="444.888%" y2="275.532%" id="e"><stop stop-color="#F1F7FF" offset="0%"/><stop stop-color="#C5CAD5" offset="100%"/></linearGradient><linearGradient x1="59.633%" y1="0%" x2="59.633%" y2="462.402%" id="f"><stop stop-color="#F1F7FF" offset="0%"/><stop stop-color="#C5CAD5" offset="100%"/></linearGradient><path d="M259.933 3.321c25.677 9.857 38.502 38.662 28.645 64.34l-.783 2.044c27.587 16.895 43.307 39.157 38.154 58.39-3.963 14.791-61.215 12.423-112.358-1.617-47.048-12.916-88.665-36.351-84.691-51.182 5.615-20.957 30.184-31.763 62.355-32.03l4.339-11.3C205.45 6.29 234.256-6.534 259.933 3.322z" id="g"/><linearGradient x1="48.384%" y1="54.027%" x2="50%" y2="45.973%" id="i"><stop stop-color="#F1F7FF" offset="0%"/><stop stop-color="#C5CAD5" offset="100%"/></linearGradient><linearGradient x1="38.603%" y1="-10.114%" x2="38.603%" y2="116.63%" id="j"><stop stop-color="#FFF" stop-opacity="0" offset="0%"/><stop stop-color="#C5CAD5" offset="100%"/></linearGradient><linearGradient x1="10.067%" y1="-16.684%" x2="86.771%" y2="83.733%" id="k"><stop stop-color="#FFF3EA" offset="0%"/><stop stop-color="#FFB895" offset="100%"/></linearGradient><linearGradient x1="-10.799%" y1="-17.79%" y2="100.215%" id="l"><stop stop-color="#FFF" offset="0%"/><stop stop-color="#FFB895" offset="100%"/></linearGradient><linearGradient x1="-10.799%" y1="-20.673%" y2="102.35%" id="m"><stop stop-color="#FFF" offset="0%"/><stop stop-color="#FFB895" offset="100%"/></linearGradient><linearGradient x1="74.781%" y1="87.334%" x2="68.463%" y2="17.72%" id="n"><stop stop-color="#FFF" stop-opacity="0" offset="0%"/><stop stop-color="#C5CAD5" offset="100%"/></linearGradient><linearGradient x1="68.463%" y1="109.467%" x2="68.463%" y2="-14.336%" id="o"><stop stop-color="#FFF" stop-opacity="0" offset="0%"/><stop stop-color="#C5CAD5" offset="100%"/></linearGradient><linearGradient x1="55.172%" y1="54.131%" x2="55.172%" y2="-57.516%" id="p"><stop stop-color="#FFF" stop-opacity="0" offset="0%"/><stop stop-color="#C5CAD5" offset="100%"/></linearGradient></defs><g fill="none" fill-rule="evenodd"><mask id="d" fill="#fff"><use xlink:href="#b"/></mask><circle stroke="url(#c)" stroke-width="7.2" opacity=".4" mask="url(#d)" cx="72" cy="125.88" r="9"/><path fill="url(#e)" opacity=".4" mask="url(#d)" transform="rotate(60 382.062 69.942)" d="M374.257 62.137h15.61v15.61h-15.61z"/><g mask="url(#d)"><use fill="url(#f)" xlink:href="#g"/><use fill-opacity=".15" fill="url(#h)" style="mix-blend-mode:overlay" xlink:href="#g"/></g><path d="M225.997 129.204c50.273-.305 104.07-11.65 104.07-27.888 0-16.237-46.219-30.11-102.552-30.11-56.333 0-101.802 13.497-101.802 29.734 0 16.237 43.951 28.264 100.284 28.264z" fill="url(#i)" opacity=".517" mask="url(#d)" transform="rotate(15 227.89 100.205)"/><path d="M127.958 106.98c24.895-9.795 52.56-14.484 82.996-14.068 30.437.416 53.736 5.331 69.9 14.747l-35.644 161.11c-7.985 8.298-21.653 12.217-41.005 11.758-19.351-.459-31.999-4.221-37.942-11.286L127.958 106.98z" fill="url(#j)" opacity=".4" mask="url(#d)" transform="rotate(-164 204.406 186.725)"/><g mask="url(#d)"><path fill="url(#k)" d="M0 11.88h84.48v50.16H0z" transform="rotate(-10 940.249 -811.62)"/><path fill="url(#l)" opacity=".4" d="M6.6 0h72.6v42.24H6.6z" transform="rotate(-10 940.249 -811.62)"/><path fill="url(#m)" d="M0 0h84.673v50.301H0z" transform="rotate(-10 1068.494 -822.84)"/><path d="M181.675 177.866l12.909 7.645-7.85 11.234-4.305.981 8.355-11.58-12.176-7.459 3.067-.821zM220.546 171.318l-9.516 11.6 11.22 7.87 4.38-.55-11.812-8.024 8.891-11.173-3.163.277z" fill="#FFF" opacity=".673"/></g><path d="M205.062 192.803c4.927-.88 9.45 1.44 10.101 5.18.098.563.103 1.126.024 1.68a3.75 3.75 0 0 0-.024-.151c-.651-3.741-5.174-6.06-10.101-5.181-4.184.747-7.315 3.56-7.765 6.683-.533-3.689 2.905-7.344 7.765-8.211z" fill="#FFEFE6" mask="url(#d)" transform="rotate(-7 206.242 196.815)"/><path d="M322 267l25.5-51 14.5 29 10.5-21 21.5 43h-72z" fill="url(#n)" opacity=".56" mask="url(#d)"/><path d="M67 289l27-54 15.132 30.264L120 244l23 45H67z" fill="url(#o)" opacity=".56" mask="url(#d)"/><ellipse fill="url(#p)" opacity=".6" mask="url(#d)" cx="239.5" cy="339" rx="250.5" ry="95"/></g></svg>