<svg width="180" height="180" viewBox="0 0 180 180" xmlns="http://www.w3.org/2000/svg"><g fill-rule="nonzero" fill="none"><g opacity=".401"><path d="M4.615 36.923a4.615 4.615 0 1 0 0 9.23 4.615 4.615 0 0 0 0-9.23z" fill="#F1F1F1"/><path d="M152.308 2.308a2.308 2.308 0 1 0 0 4.615 2.308 2.308 0 0 0 0-4.615z" fill="#C5C5C5"/><path d="M90 4.615C42.843 4.615 4.615 42.843 4.615 90c0 47.157 38.228 85.385 85.385 85.385 47.157 0 85.385-38.228 85.385-85.385 0-47.157-38.228-85.385-85.385-85.385z" fill="#E5E5E5"/><path d="M166.154 0a9.23 9.23 0 1 0 0 18.462 9.23 9.23 0 0 0 0-18.462z" fill="#E9E9E9"/><path d="M175.385 25.385a4.615 4.615 0 1 0 0 9.23 4.615 4.615 0 0 0 0-9.23z" fill="#F1F1F1"/><path d="M161.538 145.385a4.615 4.615 0 1 0 0 9.23 4.615 4.615 0 0 0 0-9.23zM9.231 110.769a9.23 9.23 0 1 0 0 18.462 9.23 9.23 0 0 0 0-18.462z" fill="#D7D7D7"/><path d="M32.308 170.77a4.615 4.615 0 1 0 0 9.23 4.615 4.615 0 0 0 0-9.23z" fill="#F1F1F1"/><path d="M17.308 92.308a5.77 5.77 0 1 0 0 11.538 5.77 5.77 0 0 0 0-11.538z" fill="#FFF"/><path d="M23.077 126.923a2.308 2.308 0 1 0 0 4.615 2.308 2.308 0 0 0 0-4.615z" fill="#D3D3D3"/><path d="M159.23 50.77a2.308 2.308 0 1 0 0 4.615 2.308 2.308 0 0 0 0-4.616z" fill="#FFF"/><path d="M55.385 141.462c-9.289 0-16.847-7.556-16.847-16.847v-69.23c0-9.289 7.556-16.847 16.847-16.847h69.23c9.289 0 16.847 7.556 16.847 16.847v69.23c0 9.289-7.556 16.847-16.847 16.847h-69.23z" fill="#F9F9F9"/><path d="M61.076 133C53.315 133 47 126.687 47 118.924V61.076C47 53.315 53.313 47 61.076 47h57.848C126.685 47 133 53.313 133 61.076v57.848c0 7.761-6.313 14.076-14.076 14.076H61.076z" fill="#DADADA"/><path d="M124.615 40.154c8.398 0 15.231 6.833 15.231 15.23v69.231c0 8.398-6.833 15.231-15.23 15.231H55.384c-8.398 0-15.231-6.833-15.231-15.23V55.384c0-8.398 6.833-15.231 15.23-15.231h69.231m0-3.23h-69.23c-10.154 0-18.462 8.307-18.462 18.46v69.231c0 10.154 8.308 18.462 18.462 18.462h69.23c10.154 0 18.462-8.308 18.462-18.462v-69.23c0-10.154-8.308-18.462-18.462-18.462z" fill="#7F7F7F"/><path d="M132.692 83.942a1.154 1.154 0 0 1-1.154-1.154v-8.942a1.154 1.154 0 0 1 2.308 0v8.942c0 .637-.517 1.154-1.154 1.154zM132.692 68.077a1.154 1.154 0 0 1-1.154-1.154v-4.615a1.154 1.154 0 0 1 2.308 0v4.615c0 .637-.517 1.154-1.154 1.154z" fill="#6A6A6A"/><path d="M122.308 133.846H57.692c-6.362 0-11.538-5.176-11.538-11.538V57.692c0-6.362 5.176-11.538 11.538-11.538h58.558a1.154 1.154 0 0 1 0 2.308H57.692c-5.09 0-9.23 4.14-9.23 9.23v64.616c0 5.09 4.14 9.23 9.23 9.23h64.616c5.09 0 9.23-4.14 9.23-9.23V89.135a1.154 1.154 0 0 1 2.308 0v33.173c0 6.362-5.176 11.538-11.538 11.538z" fill="#6A6A6A"/></g><g fill="#FFF" stroke="#C4C4C4" stroke-width="2.5"><path d="M60.008 117.944c0-1.584-.008-3.16 0-4.744.008-1.272.144-2.52.624-3.712.608-1.536 1.72-2.632 3.16-3.408 1.904-1.024 3.952-1.696 6.032-2.28 2.784-.776 5.616-1.24 8.488-1.552 3.576-.384 6.952-.688 10.544-.568 1.744.056 3.696.408 5.448.52.08.008.168.032.208.032-.08 7.368 3.24 12.664 9.88 15.992l-44.368.008c-.008-.104-.016-.192-.016-.288z" stroke-linejoin="round"/><path d="M72.936 68.736c1.528-2.848 3.864-4.8 6.92-5.928 2.552-.952 5.208-1.168 7.912-.976 2.064.152 4.032.632 5.872 1.568 2.856 1.456 4.832 3.696 5.992 6.632.984 2.488 1.28 5.088.984 7.728-.464 4.224-1.568 8.288-3.448 12.128-1.112 2.28-2.552 4.336-4.568 5.952-1.712 1.368-3.648 2.2-5.88 2.312-3.696.184-6.6-1.36-8.984-3.992-1.904-2.096-3.184-4.56-4.16-7.176-1.104-2.944-1.88-5.968-2.248-9.096-.072-.608-.08-1.232-.104-1.576.008-2.832.488-5.288 1.712-7.576z"/><path d="M108.5 113a.393.393 0 0 1-.282-.12l-2.404-2.486c-.03-.031-3.124-3.219-3.567-3.673-1.309-1.341-2.077-2.847-2.223-4.353-.144-1.5.361-2.927 1.425-4.017 1.043-1.07 2.313-1.517 3.674-1.296 1.129.184 2.29.823 3.377 1.855 1.087-1.032 2.248-1.671 3.377-1.855 1.361-.221 2.631.227 3.674 1.296 1.064 1.09 1.57 2.517 1.425 4.017-.146 1.506-.914 3.012-2.223 4.353-.968.992-5.92 6.107-5.97 6.158a.393.393 0 0 1-.283.121z" stroke-linejoin="round"/></g></g></svg>