<svg width="180" height="180" viewBox="0 0 180 180" xmlns="http://www.w3.org/2000/svg"><g fill-rule="nonzero" fill="none"><g opacity=".401"><path d="M4.615 36.923a4.615 4.615 0 1 0 0 9.23 4.615 4.615 0 0 0 0-9.23z" fill="#F1F1F1"/><path d="M152.308 2.308a2.308 2.308 0 1 0 0 4.615 2.308 2.308 0 0 0 0-4.615z" fill="#C5C5C5"/><path d="M90 4.615C42.843 4.615 4.615 42.843 4.615 90c0 47.157 38.228 85.385 85.385 85.385 47.157 0 85.385-38.228 85.385-85.385 0-47.157-38.228-85.385-85.385-85.385z" fill="#E5E5E5"/><path d="M166.154 0a9.23 9.23 0 1 0 0 18.462 9.23 9.23 0 0 0 0-18.462z" fill="#E9E9E9"/><path d="M175.385 25.385a4.615 4.615 0 1 0 0 9.23 4.615 4.615 0 0 0 0-9.23z" fill="#F1F1F1"/><path d="M161.538 145.385a4.615 4.615 0 1 0 0 9.23 4.615 4.615 0 0 0 0-9.23zM9.231 110.769a9.23 9.23 0 1 0 0 18.462 9.23 9.23 0 0 0 0-18.462z" fill="#D7D7D7"/><path d="M32.308 170.77a4.615 4.615 0 1 0 0 9.23 4.615 4.615 0 0 0 0-9.23z" fill="#F1F1F1"/><path d="M17.308 92.308a5.77 5.77 0 1 0 0 11.538 5.77 5.77 0 0 0 0-11.538z" fill="#FFF"/><path d="M23.077 126.923a2.308 2.308 0 1 0 0 4.615 2.308 2.308 0 0 0 0-4.615z" fill="#D3D3D3"/><path d="M159.23 50.77a2.308 2.308 0 1 0 0 4.615 2.308 2.308 0 0 0 0-4.616z" fill="#FFF"/><path d="M55.385 141.462c-9.289 0-16.847-7.556-16.847-16.847v-69.23c0-9.289 7.556-16.847 16.847-16.847h69.23c9.289 0 16.847 7.556 16.847 16.847v69.23c0 9.289-7.556 16.847-16.847 16.847h-69.23z" fill="#F9F9F9"/><path d="M61.076 133C53.315 133 47 126.687 47 118.924V61.076C47 53.315 53.313 47 61.076 47h57.848C126.685 47 133 53.313 133 61.076v57.848c0 7.761-6.313 14.076-14.076 14.076H61.076z" fill="#DADADA"/><path d="M124.615 40.154c8.398 0 15.231 6.833 15.231 15.23v69.231c0 8.398-6.833 15.231-15.23 15.231H55.384c-8.398 0-15.231-6.833-15.231-15.23V55.384c0-8.398 6.833-15.231 15.23-15.231h69.231m0-3.23h-69.23c-10.154 0-18.462 8.307-18.462 18.46v69.231c0 10.154 8.308 18.462 18.462 18.462h69.23c10.154 0 18.462-8.308 18.462-18.462v-69.23c0-10.154-8.308-18.462-18.462-18.462z" fill="#7F7F7F"/><path d="M132.692 83.942a1.154 1.154 0 0 1-1.154-1.154v-8.942a1.154 1.154 0 0 1 2.308 0v8.942c0 .637-.517 1.154-1.154 1.154zM132.692 68.077a1.154 1.154 0 0 1-1.154-1.154v-4.615a1.154 1.154 0 0 1 2.308 0v4.615c0 .637-.517 1.154-1.154 1.154z" fill="#6A6A6A"/><path d="M122.308 133.846H57.692c-6.362 0-11.538-5.176-11.538-11.538V57.692c0-6.362 5.176-11.538 11.538-11.538h58.558a1.154 1.154 0 0 1 0 2.308H57.692c-5.09 0-9.23 4.14-9.23 9.23v64.616c0 5.09 4.14 9.23 9.23 9.23h64.616c5.09 0 9.23-4.14 9.23-9.23V89.135a1.154 1.154 0 0 1 2.308 0v33.173c0 6.362-5.176 11.538-11.538 11.538z" fill="#6A6A6A"/></g><g fill="#FFF" stroke="#C4C4C4" stroke-linejoin="round" stroke-width="2.843"><path d="M115.059 79.909l-13.84-3.469a1.041 1.041 0 0 1-.618-.448l-7.57-12.083a4.075 4.075 0 0 0-6.902 0l-7.583 12.09c-.142.22-.363.384-.619.448l-13.839 3.469a4.08 4.08 0 0 0-1.627.831 4.079 4.079 0 0 0-.512 5.743l2.388 2.858 3.028.27c14.33 1.28 26.967 10.207 32.98 23.307l1.344 2.92 1.493.598a4.079 4.079 0 0 0 5.594-4.059l-.981-14.23a1.005 1.005 0 0 1 .234-.725l9.155-10.939a4.077 4.077 0 0 0-2.125-6.582z"/><path d="M64.835 93.769l4.009 4.79c.17.2.256.463.234.726l-.98 14.222a4.14 4.14 0 0 0 .284 1.806 4.08 4.08 0 0 0 3.781 2.551 3.97 3.97 0 0 0 1.521-.298l13.235-5.33a.996.996 0 0 1 .384-.072c.128 0 .256.021.384.071l7.64 3.078c-5.444-11.842-16.916-20.336-30.492-21.544z"/></g></g></svg>