<svg width="180" height="180" viewBox="0 0 180 180" xmlns="http://www.w3.org/2000/svg"><g fill-rule="nonzero" fill="none" opacity=".401"><path d="M4.475 36.796a4.475 4.475 0 1 0 0 8.95 4.475 4.475 0 0 0 0-8.95z" fill="#F1F1F1"/><path d="M152.652 1.989a2.486 2.486 0 1 0 0 4.972 2.486 2.486 0 0 0 0-4.972z" fill="#D5D5D5"/><path d="M90.497 4.972c-47.234 0-85.525 38.291-85.525 85.525 0 47.234 38.291 85.525 85.525 85.525 47.234 0 85.525-38.29 85.525-85.525 0-47.234-38.29-85.525-85.525-85.525z" fill="#E5E5E5"/><path d="M166.575 0a9.448 9.448 0 1 0 0 18.895 9.448 9.448 0 0 0 0-18.895z" fill="#E9E9E9"/><path d="M175.525 25.856a4.475 4.475 0 1 0 0 8.95 4.475 4.475 0 0 0 0-8.95z" fill="#F1F1F1"/><path d="M161.464 144.932a4.61 4.61 0 0 0-4.613 4.606 4.61 4.61 0 0 0 4.613 4.606 4.61 4.61 0 0 0 4.613-4.606 4.61 4.61 0 0 0-4.613-4.606zM9.227 110.387C4.13 110.387 0 114.51 0 119.599c0 5.087 4.13 9.212 9.227 9.212 5.095 0 9.226-4.125 9.226-9.212 0-5.088-4.13-9.212-9.226-9.212z" fill="#D7D7D7"/><path d="M32.32 171.05a4.475 4.475 0 1 0 0 8.95 4.475 4.475 0 0 0 0-8.95z" fill="#F1F1F1"/><path d="M16.906 92.486a5.967 5.967 0 1 0 0 11.934 5.967 5.967 0 0 0 0-11.934z" fill="#FFF"/><path d="M23.37 126.298a2.486 2.486 0 1 0 0 4.973 2.486 2.486 0 0 0 0-4.973z" fill="#C7C7C7"/><path d="M159.613 50.718a2.486 2.486 0 1 0 0 4.973 2.486 2.486 0 0 0 0-4.973z" fill="#FFF"/><path d="M124.699 39.109c8.929 0 16.192 7.263 16.192 16.192V124.7c0 8.929-7.263 16.192-16.192 16.192H55.3c-8.929 0-16.192-7.263-16.192-16.192V55.3c0-8.929 7.263-16.192 16.192-16.192H124.7" fill="#F9F9F9"/><path d="M124.699 40.034c8.417 0 15.267 6.85 15.267 15.267V124.7c0 8.417-6.85 15.267-15.267 15.267H55.3c-8.417 0-15.267-6.85-15.267-15.267V55.3c0-8.417 6.85-15.267 15.267-15.267H124.7m0-3.238H55.3c-10.22 0-18.505 8.286-18.505 18.505V124.7c0 10.22 8.286 18.505 18.505 18.505H124.7c10.22 0 18.505-8.286 18.505-18.505V55.3c0-10.22-8.286-18.505-18.505-18.505z" fill="#7F7F7F"/><path d="M120.072 133.951H59.928c-7.655 0-13.88-6.224-13.88-13.879V59.928c0-7.655 6.225-13.88 13.88-13.88h60.144c7.655 0 13.88 6.225 13.88 13.88v60.144c0 7.655-6.225 13.88-13.88 13.88z" fill="#DADADA"/><path d="M120.072 133.951H59.928c-7.655 0-13.88-6.224-13.88-13.879V59.928c0-7.655 6.225-13.88 13.88-13.88h56.963a.868.868 0 0 1 0 1.735H59.928c-6.697 0-12.145 5.448-12.145 12.145v60.144c0 6.697 5.448 12.145 12.145 12.145h60.144c6.697 0 12.145-5.448 12.145-12.145V86.241a.868.868 0 0 1 1.734 0v33.831c0 7.655-6.224 13.88-13.879 13.88zm13.012-62.457a.868.868 0 0 1-.867-.867V67.67a.868.868 0 0 1 1.734 0v2.957a.868.868 0 0 1-.867.867z" fill="#6A6A6A"/><path d="M133.084 83.06a.868.868 0 0 1-.867-.867v-7.518a.868.868 0 0 1 1.734 0v7.518a.868.868 0 0 1-.867.867z" fill="#6A6A6A"/><g><path d="M107.464 65.503c-.919 0-1.718.272-2.291.843L72.228 99.318c-1.06 1.065-3.295 6.97-4.924 11.279-.738 1.95-1.368 3.607-1.735 4.43a.721.721 0 0 0 .151.82l.355.355a.95.95 0 0 0 1.073.197c.956-.43 2.722-1.102 4.773-1.879 4.37-1.659 9.753-3.7 10.776-4.723l32.946-32.976c1.703-1.705.74-5.445-2.145-8.335-1.918-1.916-4.212-2.983-6.034-2.983z" fill="#959595"/><path d="M72.228 99.318c-1.06 1.065-3.295 6.97-4.924 11.279-.738 1.95-1.368 3.607-1.735 4.43a.721.721 0 0 0 .151.82l.355.355a.95.95 0 0 0 1.073.197c.956-.43 2.722-1.102 4.773-1.879 4.37-1.659 9.753-3.7 10.776-4.723l.006-.007-10.475-10.472z" fill="#EBEBEB"/><path d="M67.347 110.48a2.54 2.54 0 0 1-.046.12c-.737 1.95-1.368 3.606-1.734 4.429a.721.721 0 0 0 .15.82l.356.356a.95.95 0 0 0 1.073.197c.893-.404 2.509-1.02 4.39-1.733l-4.189-4.189z" fill="#656565"/><path fill="#DEDEDE" d="M97.902 73.774l4.55-4.55 10.455 10.454-4.55 4.55z"/><path d="M112.847 79.619l2.794-2.796c1.702-1.705.74-5.445-2.145-8.334-1.916-1.919-4.21-2.986-6.032-2.986-.919 0-1.718.272-2.291.843l-2.798 2.8 10.472 10.473z" fill="#9B9B9B"/></g><g fill="#444"><path d="M107.471 66.36c1.655 0 3.731 1.05 5.418 2.736 2.768 2.773 3.343 5.919 2.145 7.12l-32.95 32.976c-.89.892-6.629 3.069-10.426 4.51l-.172.064c-2.005.761-3.735 1.419-4.806 1.829l-.295-.296c.396-.903 1.04-2.603 1.72-4.4 1.422-3.756 3.8-10.041 4.73-10.974l32.945-32.97c.396-.396.965-.595 1.691-.595m0-1.72c-1.148 0-2.163.356-2.906 1.099L71.621 98.71c-1.102 1.105-2.896 5.697-5.122 11.582-.73 1.93-1.352 3.57-1.716 4.384a1.581 1.581 0 0 0 .325 1.776l.358.358a1.808 1.808 0 0 0 2.035.375c.935-.424 2.71-1.095 4.766-1.876 5.787-2.196 9.969-3.834 11.035-4.902l32.948-32.974c2.074-2.077 1.132-6.27-2.145-9.55-2.101-2.103-4.58-3.242-6.634-3.242z"/><path d="M71.822 99.713l.81-.81 10.474 10.474-.81.81zM66.73 110.674l.81-.81 4.582 4.582-.81.81zM97.497 74.179l.81-.81 10.455 10.454-.81.81zM102.045 69.63l.81-.81 10.456 10.454-.81.81z"/><path d="M100.424 76.211l-.527-.224 2.578-6.016.528.225-2.579 6.015zm2.006 1.719l-.527-.225 2.578-6.015.527.224-2.578 6.016zm2.005 1.719l-.527-.225 2.578-6.015.527.224-2.578 6.016zm1.785 2.23l-.525-.225 2.796-6.527.527.225-2.798 6.526zm1.918 1.922l-.527-.224 2.885-6.731.527.225-2.885 6.73z"/></g></g></svg>