<?xml version="1.0" standalone="no"?><!DOCTYPE svg PUBLIC "-//W3C//DTD SVG 1.1//EN" "http://www.w3.org/Graphics/SVG/1.1/DTD/svg11.dtd"><svg t="1641369969673" class="icon" viewBox="0 0 1024 1024" version="1.1" xmlns="http://www.w3.org/2000/svg" p-id="1342" width="24" height="24" xmlns:xlink="http://www.w3.org/1999/xlink"><defs><style type="text/css"></style></defs><path d="M648.65663285 648.65663285m-273.3132657 0a273.31326489 273.31326489 0 1 0 546.62653059 0 273.31326489 273.31326489 0 1 0-546.62653059 0Z" fill="#3CA5F6" fill-opacity=".202" p-id="1343"></path><path d="M193.11174762 471.00301022l91.14997419-91.08164535 250.49160751 250.49160753L694.23161954 471.00301022l136.65663284 136.65663285V193.11174762H193.11174762V471.00301022z m0 128.8672048v230.94970852H334.34637737l135.97334996-135.97334915-186.05800552-186.05800552-91.14997419 91.08164615z m270.10183454 230.94970852h367.60634138v-94.29307649l-136.65663205-136.65663203-230.94970933 230.94970852zM147.53676092 102.03010226h728.85815012c25.21314871 0 45.5749867 20.36183799 45.5749867 45.5749867v728.78982208a45.5749867 45.5749867 0 0 1-45.5749867 45.5749867H147.60508896A45.5749867 45.5749867 0 0 1 102.03010226 876.39491104V147.60508896C102.03010226 122.39194026 122.39194026 102.03010226 147.60508896 102.03010226z m523.87320125 318.88825239a68.32831601 68.32831601 0 1 1 0-136.65663284 68.32831601 68.32831601 0 0 1 0 136.65663284z" fill="#3CA5F6" p-id="1344"></path></svg>