<svg width="180" height="180" viewBox="0 0 180 180" xmlns="http://www.w3.org/2000/svg"><g fill-rule="nonzero" fill="none"><g opacity=".401"><path d="M4.615 36.923a4.615 4.615 0 1 0 0 9.23 4.615 4.615 0 0 0 0-9.23z" fill="#F1F1F1"/><path d="M152.308 2.308a2.308 2.308 0 1 0 0 4.615 2.308 2.308 0 0 0 0-4.615z" fill="#C5C5C5"/><path d="M90 4.615C42.843 4.615 4.615 42.843 4.615 90c0 47.157 38.228 85.385 85.385 85.385 47.157 0 85.385-38.228 85.385-85.385 0-47.157-38.228-85.385-85.385-85.385z" fill="#E5E5E5"/><path d="M166.154 0a9.23 9.23 0 1 0 0 18.462 9.23 9.23 0 0 0 0-18.462z" fill="#E9E9E9"/><path d="M175.385 25.385a4.615 4.615 0 1 0 0 9.23 4.615 4.615 0 0 0 0-9.23z" fill="#F1F1F1"/><path d="M161.538 145.385a4.615 4.615 0 1 0 0 9.23 4.615 4.615 0 0 0 0-9.23zM9.231 110.769a9.23 9.23 0 1 0 0 18.462 9.23 9.23 0 0 0 0-18.462z" fill="#D7D7D7"/><path d="M32.308 170.77a4.615 4.615 0 1 0 0 9.23 4.615 4.615 0 0 0 0-9.23z" fill="#F1F1F1"/><path d="M17.308 92.308a5.77 5.77 0 1 0 0 11.538 5.77 5.77 0 0 0 0-11.538z" fill="#FFF"/><path d="M23.077 126.923a2.308 2.308 0 1 0 0 4.615 2.308 2.308 0 0 0 0-4.615z" fill="#D3D3D3"/><path d="M159.23 50.77a2.308 2.308 0 1 0 0 4.615 2.308 2.308 0 0 0 0-4.616z" fill="#FFF"/><path d="M55.385 141.462c-9.289 0-16.847-7.556-16.847-16.847v-69.23c0-9.289 7.556-16.847 16.847-16.847h69.23c9.289 0 16.847 7.556 16.847 16.847v69.23c0 9.289-7.556 16.847-16.847 16.847h-69.23z" fill="#F9F9F9"/><path d="M61.076 133C53.315 133 47 126.687 47 118.924V61.076C47 53.315 53.313 47 61.076 47h57.848C126.685 47 133 53.313 133 61.076v57.848c0 7.761-6.313 14.076-14.076 14.076H61.076z" fill="#DADADA"/><path d="M124.615 40.154c8.398 0 15.231 6.833 15.231 15.23v69.231c0 8.398-6.833 15.231-15.23 15.231H55.384c-8.398 0-15.231-6.833-15.231-15.23V55.384c0-8.398 6.833-15.231 15.23-15.231h69.231m0-3.23h-69.23c-10.154 0-18.462 8.307-18.462 18.46v69.231c0 10.154 8.308 18.462 18.462 18.462h69.23c10.154 0 18.462-8.308 18.462-18.462v-69.23c0-10.154-8.308-18.462-18.462-18.462z" fill="#7F7F7F"/><path d="M132.692 83.942a1.154 1.154 0 0 1-1.154-1.154v-8.942a1.154 1.154 0 0 1 2.308 0v8.942c0 .637-.517 1.154-1.154 1.154zM132.692 68.077a1.154 1.154 0 0 1-1.154-1.154v-4.615a1.154 1.154 0 0 1 2.308 0v4.615c0 .637-.517 1.154-1.154 1.154z" fill="#6A6A6A"/><path d="M122.308 133.846H57.692c-6.362 0-11.538-5.176-11.538-11.538V57.692c0-6.362 5.176-11.538 11.538-11.538h58.558a1.154 1.154 0 0 1 0 2.308H57.692c-5.09 0-9.23 4.14-9.23 9.23v64.616c0 5.09 4.14 9.23 9.23 9.23h64.616c5.09 0 9.23-4.14 9.23-9.23V89.135a1.154 1.154 0 0 1 2.308 0v33.173c0 6.362-5.176 11.538-11.538 11.538z" fill="#6A6A6A"/></g><path d="M73.617 108.384A25.998 25.998 0 1 0 85.27 64.886a25.998 25.998 0 0 0-11.653 43.498z" fill="#E9EAEB"/><path d="M124.6 79.418v24.33c0 1.88-1.43 3.319-3.3 3.319H118v8.626c0 .995-1.32 1.548-1.98.664l-10.45-9.29H89.4c-1.87 0-3.3-1.438-3.3-3.318V79.418c0-1.88 1.43-3.318 3.3-3.318h31.9c1.76 0 3.3 1.438 3.3 3.318z" fill="#FFF"/><path d="M116.79 117.9c-.66 0-1.21-.22-1.65-.772l-10.01-9.043H89.4c-2.42 0-4.4-1.985-4.4-4.411V79.41C85 76.985 86.98 75 89.4 75h31.9c2.42 0 4.4 1.985 4.4 4.411v24.263c0 2.426-1.98 4.41-4.4 4.41h-2.2v7.5c0 .993-.55 1.765-1.43 2.095-.33.11-.55.221-.88.221zM89.4 77.316c-1.21 0-2.2.992-2.2 2.206v24.262a2.21 2.21 0 0 0 2.2 2.205h16.61l10.89 9.705v-9.705h4.4c1.21 0 2.2-.992 2.2-2.205V79.522a2.21 2.21 0 0 0-2.2-2.206H89.4z" fill="#C4C4C4"/><path d="M111.4 99.2h-2.2v-11c0-1.21-.99-2.2-2.2-2.2h-1.1c-1.21 0-2.2.99-2.2 2.2v11h-2.2v-11c0-2.42 1.98-4.4 4.4-4.4h1.1c2.42 0 4.4 1.98 4.4 4.4v11z" fill="#C1C1C1"/><path fill="#C1C1C1" d="M102.6 91.5h7.7v2.2h-7.7z"/><g><path d="M56.21 63.761v26.692c0 2.062 1.569 3.64 3.62 3.64h3.62v9.463c0 1.092 1.447 1.698 2.171.728L77.083 93.97H94.94c2.051 0 3.62-1.577 3.62-3.64V63.64c0-2.063-1.569-3.64-3.62-3.64H59.95c-2.171.121-3.74 1.699-3.74 3.761z" fill="#FFF"/><path d="M64.68 107.19c-.242 0-.605 0-.847-.122-.968-.364-1.573-1.216-1.573-2.31v-8.27h-2.42c-2.662 0-4.84-2.19-4.84-4.866V64.865C55 62.189 57.178 60 59.84 60h35.09c2.662 0 4.84 2.19 4.84 4.865v26.757c0 2.676-2.178 4.865-4.84 4.865H77.506l-11.011 9.973c-.605.365-1.21.73-1.815.73zm-4.84-44.758a2.433 2.433 0 0 0-2.42 2.433v26.757a2.433 2.433 0 0 0 2.42 2.433h4.84v10.703l.121-.122 11.737-10.581h18.271a2.433 2.433 0 0 0 2.42-2.433V64.865a2.433 2.433 0 0 0-2.42-2.433H59.84z" fill="#C4C4C4"/><path d="M77.99 86.62h-2.42a4.854 4.854 0 0 1-4.84-4.84v-7.26a4.854 4.854 0 0 1 4.84-4.84h2.42a4.854 4.854 0 0 1 4.84 4.84v7.26a4.854 4.854 0 0 1-4.84 4.84zM75.57 72.1a2.427 2.427 0 0 0-2.42 2.42v7.26a2.427 2.427 0 0 0 2.42 2.42h2.42a2.427 2.427 0 0 0 2.42-2.42v-7.26a2.427 2.427 0 0 0-2.42-2.42h-2.42z" fill="#C1C1C1"/><path fill="#C1C1C1" d="M79.2 82.141l1.571-1.571 4.479 4.478-1.57 1.572z"/></g></g></svg>