<?xml version="1.0" standalone="no"?><!DOCTYPE svg PUBLIC "-//W3C//DTD SVG 1.1//EN" "http://www.w3.org/Graphics/SVG/1.1/DTD/svg11.dtd"><svg t="1607244600889" class="icon" viewBox="0 0 1024 1024" version="1.1" xmlns="http://www.w3.org/2000/svg" p-id="2526" xmlns:xlink="http://www.w3.org/1999/xlink" width="200" height="200"><defs><style type="text/css"></style></defs><path d="M983.168 427.648l-217.152-18.112-84.8-191.36c-15.232-34.88-67.328-34.88-82.56 0L513.856 409.92l-216.704 17.664c-39.488 3.008-55.68 50.304-25.6 75.264l164.672 136.768-49.344 203.072c-8.96 36.992 32.768 66.24 66.88 46.464l186.176-107.52 186.24 107.904c34.048 19.84 75.776-9.472 66.816-46.464l-49.344-203.456 164.672-136.768c30.08-24.96 14.336-72.32-25.152-75.264z" fill="#FF6F32" fill-opacity=".201" p-id="2527"></path><path d="M956.224 405.44a71.552 71.552 0 0 0-57.728-45.312l-223.808-31.808-97.28-193.472C565.76 111.36 540.032 96 512 96c-27.904 0-53.504 15.232-65.216 38.72L349.504 328.32l-224.064 31.872c-26.88 3.84-48.96 21.12-57.664 45.312a64.64 64.64 0 0 0 16.96 69.12L248.96 631.36l-38.144 217.728c-4.672 25.792 6.72 51.264 29.824 66.624a76.608 76.608 0 0 0 76.288 3.968l194.88-100.736 195.776 100.992a78.72 78.72 0 0 0 76.032-4.224c22.848-15.104 34.112-40.704 29.568-66.56l-38.144-217.664 164.48-157.248c18.944-18.048 25.344-44.416 16.704-68.864z m-259.072 189.44a26.176 26.176 0 0 0-7.168 22.72l35.456 213.76a9.728 9.728 0 0 1-4.352 9.728 16.448 16.448 0 0 1-14.976 0.96l-182.4-99.2a24.96 24.96 0 0 0-23.616 0l-181.76 99.136a15.488 15.488 0 0 1-15.04-0.64c-1.728-1.216-5.632-4.608-4.736-10.048l35.584-213.76a25.856 25.856 0 0 0-7.168-22.784L174.08 440.96a9.472 9.472 0 0 1-2.56-9.856 12.608 12.608 0 0 1 10.24-7.808l208.768-31.36a25.6 25.6 0 0 0 18.944-14.08l90.816-190.4a13.184 13.184 0 0 1 11.84-6.784c5.12 0 10.048 2.688 11.904 6.784l90.752 190.336c3.648 7.68 10.752 12.992 19.008 14.08l208.512 31.36c4.992 0.704 8.96 3.776 10.304 7.616a10.24 10.24 0 0 1-2.56 10.112l-152.896 153.984z" fill="#444444" p-id="2528"></path></svg>