<svg width="350" height="253" viewBox="0 0 350 253" xmlns="http://www.w3.org/2000/svg"><g fill-rule="nonzero" fill="none" opacity=".803"><path fill="#C9C9C9" d="M303.333 122.843h3.431v122.843h-3.431z"/><path d="M335.587 138.488c.197 42.829-29.839 77.688-29.839 77.688s-30.354-34.58-30.551-77.409c-.197-42.83 29.839-77.689 29.839-77.689s30.355 34.58 30.551 77.41zM242.941 180.49h1.373v63.137h-1.373z" fill="#C9C9C9"/><path d="M259.411 189.34c.103 21.983-15.597 39.876-15.597 39.876s-15.868-17.75-15.97-39.733c-.103-21.983 15.597-39.875 15.597-39.875s15.867 17.749 15.97 39.732z" fill="#C9C9C9"/><ellipse fill="#C9C9C9" cx="275.882" cy="245.686" rx="43.235" ry="6.863"/><path d="M279.913 90.865c-3.724-6.144-11.092-6.43-11.092-6.43s-7.18-.896-11.785 8.46c-4.293 8.722-10.217 17.143-.954 19.184l1.673-5.084 1.037 5.463a37.12 37.12 0 0 0 3.963.066c9.92-.313 19.368.091 19.064-3.384-.404-4.62 1.677-12.364-1.906-18.275z" fill="#505050"/><path d="M266.275 102.704s4.831 6.583 1.932 11.912c-2.899 5.33 6.765 10.972 6.765 10.972l7.087-15.047s-8.376-5.33-6.12-10.345l-9.664 2.508z" fill="#FFE9E9"/><circle fill="#FFE9E9" cx="269.706" cy="96.765" r="8.235"/><path d="M240.882 106.487l7.044-8.992s2.48-9.426 6.072-8.948c3.591.478-1.42 11.304-1.42 11.304l-6.998 9.953-4.698-3.317zM275.882 224.022l2.184 12.119 4.68 1.31-1.249-14.412zM323.922 211.84l8.673 11.68 3.533 1.578 2.892-4.735-8.674-11.05z" fill="#FFE9E9"/><path d="M274.42 119.821l-5.202-7.006s-10.081 1.901-11.017 2.858c-.936.958 2.495 18.506 2.495 18.506s.624 4.786 3.431 7.338l2.808 1.914 23.082-4.785.868-10.506c.639-7.737-1.941-15.391-7.107-21.081l-4.016.561-5.341 12.201z" fill="#9E9E9E"/><path d="M258.856 116.943l-1.607-.636-7.392-.636s-2.571-.637-1.929-1.91c.643-1.273 1.286-1.591 0-1.91-1.285-.318-1.607-.636-1.285-1.59.321-.955 2.25-2.865 2.25-2.865l-5.464-4.455s-.296.207-.774.59c-2.713 2.175-11.296 10.021-5.011 17.868 7.392 9.228 16.07 14.638 23.14 12.73l-1.928-17.186z" fill="#9E9E9E"/><path d="M265.632 141.814v4.462s-2.862 5.418-1.908 10.517c.954 5.1 1.272 7.649 1.272 7.649a43.607 43.607 0 0 0 2.225 12.748c2.226 6.374-5.087 48.123 4.133 48.76 9.22.638 14.307 1.275 17.169-1.912 2.861-3.187-4.77-58.003-4.77-58.003s26.071 54.497 31.476 52.266c5.405-2.23 19.076-7.33 17.486-10.198-1.59-2.868-41.649-66.607-41.649-66.607l-1.271-2.869-24.163 3.187zM281.03 233.36s-5.03-.326-5.03 1.304c0 1.629-2.516 7.17-2.516 7.17s-1.887 6.517 3.144 5.865c5.031-.652 8.176-6.518 8.176-6.518l-1.258-6.192-2.515-1.63zM334.218 223.478s-4.42-2.851-4.104-.95c.316 1.9.631 6.97 2.841 7.287 2.21.317 8.838 2.218 9.154 2.852.315.634 7.891 3.169 7.891-.95 0-4.12-4.735-7.288-4.735-7.288l-5.366-4.12s-3.472-.316-4.103 1.902c-.631 2.218-1.578 1.267-1.578 1.267z" fill="#505050"/><circle fill="#505050" cx="270.049" cy="84.069" r="5.147"/><path d="M264.575 82.696c0-2.633 1.918-4.84 4.445-5.118a4.844 4.844 0 0 0-.523-.029c-2.744 0-4.968 2.304-4.968 5.147 0 2.843 2.224 5.147 4.968 5.147.174 0 .349-.01.523-.029-2.527-.277-4.445-2.485-4.445-5.118z" fill="#505050"/><path fill="#505050" d="M278.278 90.81l-7.332-3.653-10.126 1.494-2.095 8.8 5.216-.19 1.457-3.234v3.18l2.406-.088 1.396-5.147.873 5.479 8.554-.166z"/><path d="M277.255 142.72l-11.012.286s-9.396 1.764-8.869-1.895c.527-3.659 9.694-2.38 9.694-2.38l10.034-1.476.153 5.464z" fill="#FFE9E9"/><path d="M286.546 107.772c1.177-.173 2.31.51 2.669 1.611 2.22 6.784 9.058 29.485 2.264 32.6-8.003 3.667-13.843 3.506-13.843 3.506l-3.126-7.464 2.845-2.59 3.039-18.943 1.455-8.03 4.697-.69z" fill="#9E9E9E"/><path fill="#000" opacity=".4" d="M284.118 120.098l-1.267 12.478-11.086 4.679 12.353-2.808z"/><path d="M225.01 78.235a14.86 14.86 0 0 1 8.672 6.36l1.037 1.621.053.067 18.195 5.375a1.34 1.34 0 0 1 .908 1.637l-1.413 5.228a1.337 1.337 0 0 1-.625.812c-.308.176-.672.221-1.012.125l-18.2-5.135-1.828.698a16.19 16.19 0 0 1-10.503.36l4.715-17.148z" fill="#4B4B4B"/><ellipse fill="#9B9B9B" transform="rotate(-73.69 241.782 92.687)" cx="241.782" cy="92.687" rx="1.109" ry="2.081"/><circle fill="#555" cx="242.941" cy="93.333" r="1"/><ellipse fill="#BFBFBF" transform="rotate(-72.034 222.33 86.833)" cx="222.33" cy="86.833" rx="8.887" ry="4.023"/><path d="M225.734 87.885c1.436-4.52 1.045-8.733-.844-9.65.113.015.225.04.334.076 2.079.688 2.555 5.049 1.065 9.74-1.49 4.692-4.383 7.937-6.46 7.25a1.804 1.804 0 0 1-.221-.091c2.044.266 4.714-2.88 6.126-7.325z" fill="#414141" opacity=".4"/><path d="M224.412 78.61l-41.167-32.086a272.819 272.819 0 0 1-20.93-18.225C150.582 17.06 134.652 8.074 116.104 3.29c-45.061-11.623-80.76 8.986-96.996 39.248-24.811 46.243-43.825 121.282 66.187 81.339 24.06-8.736 48.413-9.664 66.88-14.266l66.864-13.852 5.374-17.15z" fill="#CCC" opacity=".97"/><circle fill="#F2F2F2" cx="101.225" cy="22.304" r="2.402"/><path fill="#F2F2F2" d="M144.118 27.39h-.626v-.625h-.122v.625h-.625v.122h.625v.625h.122v-.625h.626zM202.451 76.115h-.625v-.625h-.122v.625h-.626v.123h.626v.625h.122v-.625h.625zM197.647 89.84h-.625v-.624h-.122v.625h-.625v.122h.625v.625h.122v-.625h.625zM21.275 102.88h-.626v-.625h-.122v.625h-.625v.122h.625v.625h.122v-.625h.626zM46.667 34.253h-.626v-.626h-.122v.626h-.625v.122h.625V35h.122v-.625h.626zM144.804 93.272h-.625v-.625h-.122v.625h-.626v.122h.626v.626h.122v-.626h.625zM84.412 13.664h-.625v-.625h-.123v.625h-.625v.123h.625v.625h.123v-.625h.625z"/><path d="M84.51 59.02l-.785.119a70.75 70.75 0 0 1 .581 4.685l.792-.069a69.756 69.756 0 0 0-.588-4.735zM82.875 50.784l-.522.23c.316 1.501.598 3.041.838 4.574l.534-.174a95.514 95.514 0 0 0-.85-4.63zM79.495 41.863l-.573.335a84.178 84.178 0 0 1 1.468 4.469l.59-.283a82.64 82.64 0 0 0-1.485-4.521zM74.852 35l-.734.385a63.497 63.497 0 0 1 2.666 3.733l.765-.345A62.16 62.16 0 0 0 74.852 35zM69.888 27.451l-.574.497a68.264 68.264 0 0 1 2.827 3.62l.604-.456a66.446 66.446 0 0 0-2.857-3.661zM63.677 20.588l-.54.623a72.236 72.236 0 0 1 3.536 3.495l.582-.587a72.21 72.21 0 0 0-3.578-3.53zM56.008 15.784l-.42.65a65.049 65.049 0 0 1 3.656 2.782l.462-.619a67.791 67.791 0 0 0-3.698-2.813zM50.784 12.353v.823c.598.396 1.191.811 1.771 1.236l.288-.63a50.008 50.008 0 0 0-2.059-1.43zM84.412 67.954l.676-.013c.012.69.013 1.382.003 2.059l-.676-.01c.01-.67.009-1.355-.003-2.036zM41.961 121.47l-.785.12a70.75 70.75 0 0 1 .581 4.685l.792-.069a69.756 69.756 0 0 0-.588-4.735zM40.326 113.235l-.522.23c.316 1.501.598 3.041.838 4.574l.534-.174a95.5 95.5 0 0 0-.85-4.63zM36.946 104.314l-.573.335a84.177 84.177 0 0 1 1.468 4.469l.59-.283a82.663 82.663 0 0 0-1.485-4.521zM32.303 96.765l-.734.385a63.497 63.497 0 0 1 2.666 3.732l.765-.344a62.152 62.152 0 0 0-2.697-3.773zM27.339 89.902l-.574.497a68.264 68.264 0 0 1 2.827 3.62l.604-.456a66.446 66.446 0 0 0-2.857-3.661zM21.128 83.04l-.54.622a72.236 72.236 0 0 1 3.536 3.495l.582-.587a72.21 72.21 0 0 0-3.578-3.53zM13.46 78.235l-.42.65a65.055 65.055 0 0 1 3.655 2.782l.462-.619a67.791 67.791 0 0 0-3.698-2.813zM8.235 74.118v.823c.598.396 1.191.811 1.771 1.235l.288-.63a50.008 50.008 0 0 0-2.059-1.428zM41.863 130.405l.676-.013c.012.69.013 1.382.003 2.059l-.676-.01c.01-.67.009-1.355-.003-2.036zM187.451 89.902l-.784.119a70.75 70.75 0 0 1 .58 4.685l.792-.068a69.756 69.756 0 0 0-.588-4.736zM185.817 81.667l-.523.228c.316 1.503.599 3.043.838 4.576l.535-.175a95.5 95.5 0 0 0-.85-4.63zM183.123 73.431l-.574.336a84.178 84.178 0 0 1 1.469 4.468l.59-.283a82.663 82.663 0 0 0-1.485-4.52zM178.48 65.196l-.735.385a63.496 63.496 0 0 1 2.666 3.733l.765-.344a62.152 62.152 0 0 0-2.696-3.774zM172.829 58.333l-.574.497a68.264 68.264 0 0 1 2.828 3.621l.603-.457a66.446 66.446 0 0 0-2.857-3.66zM166.618 52.157l-.54.623a72.236 72.236 0 0 1 3.536 3.495l.582-.587a72.21 72.21 0 0 0-3.578-3.531zM160.322 46.667l-.42.649a65.049 65.049 0 0 1 3.655 2.782l.463-.619a67.79 67.79 0 0 0-3.698-2.812zM153.725 43.235v.824c.598.396 1.191.81 1.772 1.235l.287-.63a50.008 50.008 0 0 0-2.059-1.429zM188.725 99.522l.677-.012c.012.689.013 1.381.002 2.059l-.676-.011c.01-.67.01-1.354-.003-2.036z" fill="#E6E6E6"/><path fill="#F2F2F2" d="M47.353 63.45h-.313v-.313h-.06v.313h-.313v.06h.312v.314h.061v-.313h.313zM41.176 95.705h-.312v-.313h-.061v.313h-.313v.06h.313v.313h.06v-.312h.313zM22.647 124.528h-.313v-.312h-.06v.312h-.313v.061h.312v.313h.061v-.313h.313z"/><path d="M130.18 35.344c15.068 12.053 19.04 33.262 9.346 49.916-9.693 16.653-30.143 23.756-48.128 16.715-1.554 5.524-6.656 9.305-12.413 9.2-5.757-.107-10.716-4.073-12.064-9.65-1.348-5.577 1.256-11.357 6.334-14.062-10.786-15.972-8.243-37.399 5.985-50.425 14.227-13.027 35.873-13.746 50.94-1.694zm-25.992 44.714c-2.79 0-5.058 2.168-5.058 4.91 0 2.763 2.245 4.908 5.058 4.908 2.812 0 5.08-2.145 5.08-4.909s-2.268-4.91-5.08-4.91zm1.158-35.938c-6.746 0-11.538 2.727-13.809 7.056-1.436 2.736.592 6.028 3.662 6.028l.212-.003a4.17 4.17 0 0 0 3.601-2.401c.972-2.145 3.09-3.459 5.766-3.459 3.522 0 6.358 2.169 6.358 5.124 0 2.955-1.678 4.48-5.672 6.887-4.278 2.526-5.98 5.577-5.578 10.486l.008.232a1.874 1.874 0 0 0 1.866 1.817h4.531c.495 0 .97-.198 1.32-.551a1.89 1.89 0 0 0 .547-1.331l.003-.238c.072-2.906 1.5-4.64 5.504-6.983 4.372-2.598 6.641-5.863 6.641-10.581 0-7.126-6.098-12.083-14.96-12.083z" fill="#666"/></g></svg>