<svg width="16" height="16" viewBox="0 0 16 16" xmlns="http://www.w3.org/2000/svg"><g fill="none" fill-rule="nonzero"><circle fill="#E7F5ED" cx="10" cy="10" r="4"/><g stroke="#5DBC82" stroke-width=".2" fill="#5DBC82"><path d="M13.91 7.41a.593.593 0 0 0-.592.59c0 2.925-2.393 5.318-5.318 5.318S2.682 10.925 2.682 8 5.075 2.682 8 2.682c.325 0 .59-.266.59-.591A.593.593 0 0 0 8 1.5C4.425 1.5 1.5 4.425 1.5 8s2.925 6.5 6.5 6.5 6.5-2.925 6.5-6.5a.593.593 0 0 0-.59-.59z"/><path d="M10.103 3.767l1.15.148-4.16 4.164a.571.571 0 0 0 0 .827.582.582 0 0 0 .414.177c.147 0 .295-.059.413-.177l4.16-4.164.147 1.152c.03.295.295.531.59.531h.089a.555.555 0 0 0 .502-.65l-.236-1.919a1.19 1.19 0 0 0-1.033-1.034l-1.918-.236c-.324-.03-.62.177-.649.502-.03.325.207.62.531.68z"/></g></g></svg>