<svg width="16" height="16" viewBox="0 0 16 16" xmlns="http://www.w3.org/2000/svg"><g fill="none" fill-rule="evenodd"><path d="M0 0h16v16H0z"/><circle fill="#FFF3E3" fill-rule="nonzero" cx="10" cy="10" r="4"/><path d="M15.437 6.206a1.199 1.199 0 0 0-.967-.761l-3.746-.535-1.629-3.256C8.9 1.258 8.47 1 8 1c-.467 0-.896.256-1.092.652L5.28 4.908l-3.752.537a1.19 1.19 0 0 0-.965.761A1.09 1.09 0 0 0 .847 7.37l2.75 2.64-.638 3.665c-.079.434.112.862.5 1.12a1.277 1.277 0 0 0 1.277.066l3.262-1.694 3.277 1.7c.394.198.897.17 1.274-.072.381-.254.57-.685.494-1.119l-.639-3.664 2.753-2.645c.317-.304.424-.748.28-1.16zM11.025 9.42a.43.43 0 0 0-.118.373l.58 3.511a.16.16 0 0 1-.072.16.267.267 0 0 1-.245.015L8.19 11.85a.407.407 0 0 0-.385 0l-2.97 1.627a.252.252 0 0 1-.246-.011c-.028-.019-.092-.075-.077-.165l.58-3.51a.427.427 0 0 0-.116-.374L2.478 6.89a.156.156 0 0 1-.041-.16c.023-.068.086-.117.167-.13l3.41-.515a.419.419 0 0 0 .31-.231l1.484-3.126A.215.215 0 0 1 8 2.615c.085 0 .164.044.194.112L9.68 5.853c.06.125.175.213.31.231l3.407.514c.082.013.148.063.169.125.017.06.001.121-.043.166l-2.497 2.53z" fill="#FCC553" fill-rule="nonzero"/></g></svg>