<?xml version="1.0" standalone="no"?><!DOCTYPE svg PUBLIC "-//W3C//DTD SVG 1.1//EN" "http://www.w3.org/Graphics/SVG/1.1/DTD/svg11.dtd"><svg t="1606880570064" class="icon" viewBox="0 0 1024 1024" version="1.1" xmlns="http://www.w3.org/2000/svg" p-id="2337" xmlns:xlink="http://www.w3.org/1999/xlink" width="200" height="200"><defs><style type="text/css"></style></defs><path d="M928.896 408.96a67.52 67.52 0 0 0-54.208-43.648l-209.984-30.72L573.376 147.84A68.224 68.224 0 0 0 512 110.272c-26.24 0-50.176 14.72-61.184 37.44L359.488 334.528l-210.304 30.72a67.008 67.008 0 0 0-54.08 43.776 63.552 63.552 0 0 0 15.872 66.688L265.216 627.2l-35.84 210.176a63.872 63.872 0 0 0 28.032 64.32 70.272 70.272 0 0 0 71.616 3.84l182.848-97.28 183.68 97.536c22.144 11.392 50.368 9.792 71.424-4.096a64 64 0 0 0 27.712-64.192l-35.84-210.176L913.28 475.52a63.424 63.424 0 0 0 15.68-66.56z" fill="#FCC553" p-id="2338"></path></svg>