<?xml version="1.0" encoding="utf-8"?>
<!-- Generator: Adobe Illustrator 22.1.0, SVG Export Plug-In . SVG Version: 6.00 Build 0)  -->
<svg version="1.1" id="图层_1" xmlns="http://www.w3.org/2000/svg" xmlns:xlink="http://www.w3.org/1999/xlink" x="0px" y="0px"
	 viewBox="0 0 80 80" style="enable-background:new 0 0 80 80;" xml:space="preserve">
<style type="text/css">
	.st0{opacity:0.8;fill-rule:evenodd;clip-rule:evenodd;fill:#E07164;}
	.st1{opacity:0.25;fill-rule:evenodd;clip-rule:evenodd;fill:#E07164;}
	.st2{fill-rule:evenodd;clip-rule:evenodd;fill:#E07164;}
</style>
<g>
	<g>
		<path class="st0" d="M0.7,29.7c1.4-8.6,9.5-14.5,17.9-13c0.2,0,1.8,0.6,1.9,0.4c0.3-0.4,0.6-0.8,0.9-1.2c0.8-0.9,1.7-1.7,2.6-2.4
			c1.8-1.3,3.9-2.2,6.1-2.6c2.5-0.5,5-0.2,7.4,0.5c1.2,0.4,2.2,0.9,3.3,1.5c0.6,0.4,0.9,0,1.4-0.4c0.6-0.4,1.2-0.8,1.8-1.1
			c4.3-2.3,9.6-2.2,13.9,0c2,1,3.7,2.5,5,4.2c0.7,0.9,1.2,1.8,1.7,2.8c0.2,0.4,0.4,1.5,0.9,1.5c0.8,0,1.5,0.2,2.3,0.3
			c8.7,1.8,13.8,11,11.4,19.4c-1.1,3.9-3.8,7.3-7.3,9.3c-1.7,1-3.8,1.7-5.8,1.9C65.7,51,65.4,51,65,51.6c-0.3,0.4-0.6,0.8-0.9,1.2
			c-0.8,0.9-1.6,1.7-2.6,2.4c-3.8,2.8-8.7,3.6-13.2,2.4c-2.3-0.7-4.5-1.9-6.3-3.6c-0.5-0.5-0.8,0-1.3,0.3c-0.5,0.4-1,0.7-1.5,1
			c-1.1,0.6-2.3,1.1-3.4,1.4c-4.1,1.2-8.6,0.4-12.2-1.9c-0.8-0.5-1.6-1.1-2.3-1.8c-0.3-0.3-0.6-0.6-0.8-0.9
			c-0.1-0.1-0.4-0.6-0.6-0.5c-0.2,0.2-0.4,0.3-0.6,0.5c-1.5,1.4-2.6,3-3.5,4.9c-2,4.1-2.6,9.3-2,13.8c0,0.1-0.3,0.5-0.3,0.3
			c-1.4-5-2.5-10.3-2.1-15.6c0.2-2.9,1-5.8,2.6-8.2c0,0.1,0,0.2,0,0.3C5.5,46.4-0.6,38.3,0.7,29.7c0-0.2,0.4-0.5,0.3-0.2
			C-0.3,38,5.8,46,14.2,47c0.1,0,0,0.2,0,0.3c-1.6,2.5-2.3,5.4-2.5,8.3c-0.3,5.1,0.7,10.2,2.1,15.1c-0.1,0.1-0.2,0.2-0.3,0.3
			c-1-7,0.9-15.4,6.5-19.9c0.1,0,0.1-0.1,0.2,0c5.3,6.6,15,7.5,21.5,2.1c0,0,0.1-0.1,0.2,0c3.7,3.8,9.1,5.4,14.3,4.2
			c2.5-0.6,4.7-1.8,6.6-3.5c1-0.9,1.8-1.9,2.5-3c0.1-0.2,0.3-0.2,0.5-0.2c0.7,0,1.4-0.1,2.1-0.3c4.6-0.9,8.6-4.2,10.6-8.5
			c2-4.4,1.7-9.6-0.7-13.7c-2.5-4.6-7.4-7.4-12.6-7.7c0,0,0,0-0.1,0c-1.5-4.2-4.7-7.5-8.9-9.2c-5-2-10.8-0.9-14.9,2.5
			c0,0-0.1,0.1-0.2,0c-6.7-4.5-15.9-2.9-20.6,3.8c0,0-0.1,0.2-0.2,0.1c-4.2-1.3-8.6-0.8-12.3,1.4C4.3,21.2,1.7,25.2,1,29.5
			C1,29.6,0.6,30,0.7,29.7z"/>
		<path class="st1" d="M76.4,33c4.3-6.8-3.6-13.8-8.7-17.1c-8.5-5.4-18.6-7.3-28.4-6.1c-9.3,1.1-18.6,4.3-26.7,9.1
			c-3.3,2-6.4,4.3-8.9,7.3c-1.8,2.2-3,4.7-2.8,7.6c0.2,2.4,0.9,4.9,1.7,7.2c1.1,3.1,2.7,6.1,4.6,8.8c4.3,6.3,10.7,11,18.4,11.9
			c8.8,1,17.7-2.8,25.2-7c7.5-4.2,14.6-9.5,20.6-15.6C73.2,37.2,75,35.2,76.4,33c0.2-0.3,1.1-0.4,0.9,0c-1.6,2.5-3.7,4.7-5.8,6.8
			c-2.9,2.8-5.9,5.4-9.1,7.8c-7.1,5.4-15,10-23.6,12.7c-7.6,2.4-15.7,2.8-22.8-1.2C10,55.8,5.5,50,2.7,43.7c-2-4.4-4-10-1.7-14.7
			c1.5-3,4-5.3,6.6-7.3c3.4-2.6,7.1-4.7,11-6.4C26.8,11.5,36,9.1,45,9c9.4-0.1,19.1,2.9,26.5,8.7c4.3,3.4,9.4,9.6,5.8,15.2
			C77.2,33.2,76.3,33.2,76.4,33z"/>
		<path class="st2" d="M34.2,13.5l3.3,0.2H38l2.1,0.7c0.8,0.7,1.3,1.6,1.5,2.7l2-0.2h2.6l1.5,0.5v0.5c0,0.8-2.1,1.5-6.3,2.2
			c-0.8,0.9-1.9,1.8-3.5,2.8c-0.6,0.6-2.1,1.3-4.6,2.3l0.2,0.8l-0.3,1h-0.5v0.3c0.4,0,0.7,0.2,0.7,0.7c0.5,0,1.3,0.8,2.1,2.3v5.5
			h0.2c0.9-3.3,2.1-5.7,3.6-7c2.7-3.3,4.9-5.2,6.4-5.5l0.3-0.3h0.8l0.2,0.2l0.2-0.2h0.5l0.7,0.7v0.2l-1.2,7v2.2l0.3,0.5v0.3
			l-0.3,0.5v0.7c0,3,0.5,5.3,1.7,7c1.3,0.9,2.2,1.3,2.8,1.3c1.4-0.4,2.1-0.8,2.1-1.2c-0.5-1.7-1.4-2.8-2.5-3.5c-0.2,0-0.4-0.3-0.7-1
			c-0.8-0.4-1.2-0.9-1.2-1.5l0.2-0.2h0.2c1.1,0,2.5,0.9,4.3,2.8c1.5,0.8,2.3,2.1,2.3,4c-0.1,2.3-0.5,3.5-1.3,3.5
			c-0.8,1.2-1.9,1.8-3.3,1.8c-1.3,0-2.9-1.4-4.8-4.2c-0.4-0.9-0.9-4.1-1.5-9.7h-0.2c-0.3,1.3-1.1,2.9-2.3,4.7c0.5,0,1,0.5,1.3,1.5
			c0,0.9-0.8,2.2-2.3,4l-1,2h-0.7v-0.7l0.7-2.5c0-0.2-0.5-0.5-1.5-0.8l-0.8-1.5v-0.8c1.9-1.3,2.8-2.4,2.8-3.2l0.5-1.3v-0.3
			c0-0.7-0.4-1.2-1.3-1.5v-0.3l0.8-3.2h0.7c1.2,0.7,2.3,1.8,3.1,3.3l0.2,0.2h0.2v-0.3l0.2-3.3l-0.2-0.7l0.3-2.2L46,26.1v-0.7
			l-0.3-0.3c-2.3,1.7-4.3,3.8-5.9,6.5c-0.9,0.6-1.8,1.8-2.8,3.8c-0.9,1.8-1.3,2.8-1.3,3.2v6.3l-0.2,0.2l0.2,0.2v0.7l-0.2,0.2
			l0.2,0.2v0.5c0,0.2-0.5,0.8-1.6,1.7h-0.3c-0.3,0-0.7-1.3-1-3.8l1-4c-0.1-6.1-0.3-9.6-0.5-10.5l0.2-0.2c-0.4,0-0.7-0.7-0.7-2h-0.2
			c-0.1,0.8-0.4,1.6-0.8,2.5l-0.2,4.3v0.3l-0.3,0.3l0.2,0.2v0.2c-0.1,1.3-0.3,2-0.5,2l0.3,1.5l-0.3,0.3v1l0.3,0.5v0.2l-0.3,0.5
			l0.3,0.5v5l-0.3,0.5v1.2c0.4,0.9,0.8,1.3,1,1.3l0.5,1.8l-1,0.8h-0.3c-1.2,0-2.1-0.4-2.6-1.2c-0.4-0.2-1.1-0.9-2-2.2v-1.3
			c-0.3,0-0.7-0.2-1-0.7l-0.7,0.2l-0.2-0.2v-0.3l0.3-0.5c-1.5-1.2-2.6-2.7-3.1-4.5v-0.7l0.3-0.7c0-1.9,0.2-3,0.5-3.3v-0.8
			c-0.3-0.4-0.5-0.8-0.5-1.2l1-0.7h0.3c0.9,0,1.4,0.3,1.6,1c0.3,0.1,0.8,0.6,1.5,1.5v0.8h0.7c0.2-1.1,0.4-1.7,0.7-1.7h0.5L28,39.9
			h0.3v-1l0.3-0.7l0.2-3.5l0.3-0.3v-1.7l0.3-0.5v-0.2c0-1.9,0.4-3.9,1.3-6c-0.4,0.3-1.2,0.5-2.3,0.5c0-0.2-0.5-0.5-1.5-0.8
			c-0.4-0.6-0.8-0.8-1.2-0.8v-0.7h0.3l0.2,0.2c0.9-0.3,1.3-0.7,1.3-1.2c0.4,0,0.7-0.2,0.7-0.5c0.3,0,1.4-0.6,3.3-1.8l4.5-1.8
			l2.3-0.7l0.2-0.2c0.3,0,0.5-0.1,0.5-0.3v-0.2h-1l-1.8-0.3h-0.5l-0.5,0.3h-0.5v-0.5l0.2-0.2v-0.2c-2.1,0-3.1-0.6-3.1-1.7v-0.7
			C32.6,13.9,33.5,13.5,34.2,13.5L34.2,13.5z M26.8,47.2c0.2,0.6,0.9,1.1,2,1.7v-0.2l-0.5-1.7L26.8,47.2L26.8,47.2z M43.6,47.2
			l-2.1,0.3l-1.2-0.2v0.3l0.2,1.7c1,0.6,1.5,0.9,1.5,1.2v0.2c2.2,0,3.3-0.3,3.3-1c0-1.3-0.3-2.2-1-2.5H43.6z"/>
	</g>
</g>
</svg>
